{"glyphs":{":":{"x_min":0,"x_max":167,"ha":167,"o":"m 98 438 q 115 438 125 427 q 136 417 136 400 q 136 364 107 364 q 91 364 71 377 q 52 390 52 406 q 52 420 66 429 q 81 438 98 438 z m 69 63 q 84 63 104 44 q 124 25 124 10 q 124 -4 117 -10 q 111 -17 91 -17 q 45 -17 45 6 q 45 21 52 42 q 59 63 69 63 z"},"$":{"x_min":0,"x_max":329,"ha":329,"o":"m 202 589 q 252 583 279 556 q 306 530 306 504 q 306 478 288 453 q 270 428 246 428 q 221 428 207 445 q 192 461 192 478 q 192 495 205 506 q 218 517 230 517 q 238 517 246 513 q 255 509 255 502 q 242 500 233 490 q 223 480 223 469 q 223 459 232 450 q 240 441 252 441 q 260 441 267 458 q 273 475 273 489 q 273 525 247 551 q 221 576 184 576 q 151 576 130 546 q 109 516 109 476 q 109 443 126 402 q 144 361 193 299 q 242 237 258 210 q 274 184 274 155 q 274 120 246 90 q 219 61 172 55 q 164 -86 164 -106 l 133 -111 q 145 -26 148 55 q 102 61 72 92 q 41 123 41 152 q 41 180 62 201 q 83 222 106 222 q 125 222 144 209 q 164 197 164 181 q 164 148 139 148 q 139 168 131 186 q 123 204 109 204 q 100 204 90 190 q 80 175 80 157 q 80 119 105 94 q 129 69 161 69 q 194 69 222 92 q 250 116 250 147 q 250 168 235 198 q 221 229 156 293 q 92 357 72 395 q 52 433 52 465 q 52 514 89 551 q 126 587 184 590 q 188 636 188 656 q 188 687 181 747 l 228 750 q 222 710 215 675 q 208 641 202 589 z"},"?":{"x_min":0,"x_max":404,"ha":404,"o":"m 130 494 q 110 494 96 507 q 82 519 82 536 q 82 557 103 570 q 125 583 152 583 q 169 583 187 560 q 205 538 205 513 q 205 484 174 465 q 144 445 108 445 q 73 445 44 472 q 15 499 15 532 q 15 588 65 628 q 115 667 197 667 q 263 667 318 615 q 372 563 372 500 q 372 476 365 452 q 359 428 346 407 q 333 385 313 368 q 294 350 264 336 q 234 322 214 322 l 191 328 q 189 238 198 155 l 150 147 q 157 210 157 221 q 157 252 161 297 q 165 341 165 372 q 209 352 239 352 q 270 352 292 378 q 314 404 314 483 q 314 562 275 609 q 236 656 175 656 q 129 656 90 616 q 52 576 52 533 q 52 507 72 481 q 91 455 113 455 q 133 455 151 480 q 168 505 168 522 q 168 568 135 568 q 115 568 115 532 q 115 516 130 494 z m 182 84 q 191 84 201 72 q 211 61 211 46 q 211 32 199 21 q 187 10 170 10 q 154 10 154 37 q 154 54 163 69 q 171 84 182 84 z"},"<":{"x_min":0,"x_max":617,"ha":617,"o":"m 599 514 q 532 480 360 403 q 187 325 115 280 q 265 180 566 40 l 546 -6 q 215 199 54 276 l 50 291 q 419 462 555 560 z"},"'":{"x_min":0,"x_max":120,"ha":120,"o":"m 99 657 q 69 513 68 453 q 60 453 42 455 q 42 519 41 650 q 86 655 99 657 z"},"=":{"x_min":0,"x_max":617,"ha":617,"o":"m 579 394 l 577 344 l 358 352 q 203 359 117 359 q 86 359 54 357 l 50 394 q 181 388 343 388 q 521 388 579 394 z m 574 197 l 564 166 q 482 166 299 160 q 116 155 50 155 l 45 202 q 259 195 395 195 q 485 195 574 197 z"},"a":{"x_min":0,"x_max":361,"ha":361,"o":"m 160 320 q 157 300 137 300 q 126 300 120 307 q 113 315 113 327 q 113 341 125 354 q 138 366 152 366 q 218 366 218 328 q 218 296 184 270 q 150 243 126 243 q 97 243 77 260 q 57 276 57 303 q 57 360 110 418 q 164 477 221 477 q 269 477 301 436 q 333 396 333 336 q 333 293 321 263 q 309 233 285 192 q 222 88 222 2 q 222 -8 223 -18 l 203 -18 l 204 47 q 143 7 116 7 q 83 7 62 27 q 40 47 40 80 q 40 111 72 135 q 104 158 143 158 q 171 158 232 164 q 268 243 268 304 q 268 446 203 446 q 144 446 118 407 q 92 369 92 302 q 92 283 103 270 q 114 257 130 257 q 150 257 168 275 q 186 294 186 316 q 186 328 175 337 q 164 346 150 346 q 144 346 139 340 q 135 334 135 328 q 135 316 145 316 q 153 316 160 320 z m 225 147 q 184 145 159 140 q 134 136 118 117 q 103 99 103 78 q 103 59 114 46 q 124 33 141 33 q 171 33 208 71 z"},"L":{"x_min":0,"x_max":457,"ha":457,"o":"m 367 122 q 375 130 384 130 q 404 130 404 96 q 404 83 389 67 q 374 51 360 51 q 337 51 322 69 q 307 87 307 119 q 307 144 324 164 q 341 183 361 183 q 394 183 423 146 q 452 109 452 64 q 452 -26 355 -26 q 315 -26 239 -10 q 163 5 123 5 q 86 5 25 -2 l 27 21 l 112 25 q 117 63 117 223 q 117 404 87 614 q 59 614 6 611 l 8 637 q 70 635 127 635 q 175 635 233 644 l 233 616 l 162 616 q 168 501 168 413 q 168 266 139 28 q 166 28 237 21 q 309 15 333 15 q 373 15 403 33 q 432 51 432 75 q 432 106 419 126 q 407 147 384 147 q 357 147 339 136 q 320 125 320 106 q 320 87 329 83 q 338 78 358 78 q 387 78 387 96 q 387 107 367 122 z"},"3":{"x_min":0,"x_max":425,"ha":425,"o":"m 142 507 q 137 507 129 518 q 120 529 120 535 q 120 549 138 561 q 156 573 172 573 q 183 573 202 556 q 220 540 220 527 q 220 502 190 483 q 161 463 130 463 q 92 463 67 493 q 43 524 43 565 q 43 603 106 629 q 169 656 220 656 q 289 656 342 609 q 395 562 395 496 q 395 456 334 393 q 273 331 199 299 q 282 283 328 242 q 374 201 374 150 q 374 82 308 26 q 241 -30 172 -30 q 118 -30 76 0 q 35 30 35 72 q 35 95 66 124 q 97 153 129 153 q 160 153 181 139 q 201 125 201 107 q 201 78 180 59 q 159 39 126 39 q 103 39 93 83 q 118 72 147 72 q 169 72 169 86 q 169 98 153 112 q 138 126 123 126 q 101 126 81 113 q 61 101 61 79 q 61 43 91 17 q 122 -9 177 -9 q 298 -9 298 136 q 298 211 260 247 q 222 282 132 282 q 122 282 89 280 l 92 328 q 131 313 146 313 q 223 313 271 375 q 319 438 319 520 q 319 570 280 603 q 240 636 189 636 q 150 636 115 600 q 80 564 80 527 q 80 513 96 497 q 113 480 125 480 q 146 480 162 493 q 179 507 179 526 q 179 558 168 558 q 140 558 140 530 z"},";":{"x_min":0,"x_max":153,"ha":153,"o":"m 89 454 q 98 454 108 442 q 118 431 118 418 q 118 393 92 393 q 76 393 60 405 q 44 417 44 431 q 44 454 89 454 z m 84 39 q 74 24 58 24 q 47 24 40 35 q 32 46 32 57 q 32 69 48 80 q 64 91 79 91 q 100 91 114 72 q 128 53 128 30 q 128 6 115 -18 q 103 -42 58 -79 q 58 -65 49 -54 q 103 -32 103 10 q 103 33 84 39 z"},"J":{"x_min":0,"x_max":442,"ha":442,"o":"m 405 618 q 366 616 338 612 q 340 557 347 462 q 354 367 354 284 q 354 194 333 107 q 312 19 264 -23 q 215 -66 153 -66 q 95 -66 49 -23 q 2 20 2 75 q 2 131 46 175 q 91 219 134 219 q 175 219 204 189 q 234 159 234 119 q 234 93 207 70 q 181 48 154 48 q 132 48 114 66 q 95 83 95 105 q 95 122 106 133 q 117 144 134 144 q 164 144 164 118 q 151 121 145 121 q 139 121 134 115 q 129 109 129 102 q 129 86 136 75 q 144 64 151 64 q 167 64 178 85 q 188 106 188 126 q 188 159 174 180 q 161 201 137 201 q 104 201 82 165 q 59 129 59 79 q 59 22 84 -13 q 109 -48 153 -48 q 227 -48 266 16 q 306 80 306 238 q 306 309 288 418 q 269 527 246 603 q 226 600 140 596 l 140 621 q 275 625 321 632 q 367 638 405 648 z"},"V":{"x_min":0,"x_max":626,"ha":626,"o":"m 314 46 q 344 90 369 168 q 394 247 395 313 q 398 465 417 517 q 436 568 476 602 q 517 636 571 636 q 613 636 640 613 q 667 589 667 552 q 667 529 639 505 q 611 482 583 482 q 568 482 551 492 q 534 503 534 513 q 534 534 548 548 q 562 561 583 561 q 597 561 603 556 q 609 551 609 536 q 590 546 571 546 q 566 546 560 542 q 553 538 553 533 q 553 509 601 509 q 643 509 643 534 q 643 565 613 584 q 583 604 542 604 q 491 604 468 562 q 444 521 436 434 q 427 347 426 317 q 420 164 299 -11 l 281 -11 q 276 37 258 99 q 240 161 198 290 q 156 418 124 478 q 92 538 60 602 l -35 592 l -40 615 q 146 624 238 647 q 244 629 244 622 l 143 611 q 206 499 314 46 z"},"\"":{"x_min":0,"x_max":211,"ha":211,"o":"m 177 688 q 150 542 150 490 l 122 489 q 130 514 130 570 q 130 622 124 684 q 130 683 137 683 q 145 683 158 685 q 172 688 177 688 z m 93 671 q 70 563 70 500 q 70 486 71 476 q 60 476 49 475 q 45 621 36 667 q 42 668 62 668 q 81 668 93 671 z"},"7":{"x_min":0,"x_max":392,"ha":392,"o":"m 397 636 q 373 564 306 444 q 240 323 223 287 q 206 252 185 196 q 164 139 164 114 q 164 83 185 53 q 206 23 227 23 q 250 23 269 50 q 288 76 288 100 q 288 121 272 136 q 256 151 234 151 q 226 151 219 143 q 213 135 213 125 q 213 102 242 102 q 242 78 220 78 q 215 78 203 88 q 192 98 192 111 q 192 132 211 158 q 230 183 249 183 q 270 183 287 160 q 304 137 304 111 q 304 61 278 28 q 251 -5 207 -5 q 160 -5 127 27 q 95 59 95 91 q 95 136 136 216 q 178 295 229 369 q 322 503 352 588 q 296 565 255 565 q 209 565 143 572 q 76 579 43 579 q 50 473 50 463 l 25 463 l 24 651 q 43 652 52 652 q 87 652 159 635 q 230 618 286 618 q 346 618 397 636 z"},"S":{"x_min":0,"x_max":481,"ha":481,"o":"m 278 556 q 266 562 256 562 q 242 562 242 531 q 242 521 252 512 q 261 503 273 503 q 318 503 318 582 q 318 614 293 637 q 268 660 234 660 q 189 660 156 626 q 123 592 123 550 q 123 515 149 482 q 175 448 253 406 q 331 363 364 341 q 397 318 421 286 q 444 254 444 212 q 444 133 373 62 q 302 -10 216 -10 q 153 -10 107 39 q 60 87 60 151 q 60 202 105 244 q 150 285 198 285 q 243 285 270 264 q 297 243 297 207 q 297 169 266 142 q 236 114 197 114 q 180 114 169 126 q 158 138 158 153 q 158 168 169 177 q 181 187 198 187 q 212 187 218 176 q 192 168 192 157 q 192 130 217 130 q 236 130 249 151 q 261 171 261 195 q 261 225 241 246 q 220 268 191 268 q 152 268 132 232 q 111 197 111 139 q 111 87 144 49 q 177 11 225 11 q 300 11 354 64 q 407 116 407 202 q 407 242 384 269 q 361 297 327 315 q 293 333 234 357 q 175 381 138 400 q 102 419 77 451 q 52 482 52 527 q 52 589 107 632 q 163 675 237 675 q 285 675 318 652 q 351 628 351 591 q 351 548 329 518 q 307 488 270 488 q 242 488 221 500 q 201 513 201 534 q 201 551 213 566 q 226 580 245 580 q 278 580 278 556 z"},"}":{"x_min":0,"x_max":246,"ha":246,"o":"m 240 264 q 228 265 220 265 q 157 265 157 205 q 157 181 174 133 q 191 85 191 60 q 191 21 158 -15 q 125 -51 88 -51 q 64 -51 19 -32 l 30 0 q 58 -29 96 -29 q 125 -29 145 -10 q 164 8 164 37 q 164 60 140 103 q 116 145 116 173 q 116 246 172 282 q 146 285 132 310 q 118 335 118 369 q 118 398 135 453 q 151 508 151 538 q 151 572 133 594 q 116 615 85 615 q 59 615 32 573 q 27 582 11 599 q 52 626 103 626 q 195 626 195 515 q 195 470 163 410 q 139 365 139 339 q 139 320 155 309 q 170 298 192 298 q 207 298 237 310 q 240 292 240 281 z"},"Z":{"x_min":0,"x_max":547,"ha":547,"o":"m 446 175 q 464 175 464 151 q 464 140 448 131 q 433 122 418 122 q 399 122 384 141 q 368 160 368 170 q 368 201 395 227 q 421 253 447 253 q 471 253 497 229 q 523 205 523 164 q 523 109 472 56 q 421 4 345 4 q 324 4 249 12 q 175 20 132 20 q 57 20 31 6 l 25 18 q 196 217 266 340 q 336 464 404 630 q 292 577 127 577 q 120 509 110 463 l 81 466 q 104 549 104 588 q 104 622 96 682 q 99 683 118 685 l 127 629 q 160 628 188 628 q 291 628 362 642 q 433 656 448 675 q 455 665 482 643 q 439 551 384 451 q 329 352 281 291 q 232 230 157 143 q 83 56 73 43 q 97 55 145 63 q 192 72 226 72 q 247 72 310 58 q 374 45 416 45 q 445 45 469 76 q 492 108 492 142 q 492 166 473 191 q 454 217 433 217 q 409 217 396 205 q 383 193 383 181 q 383 146 422 146 q 429 146 437 156 q 446 166 446 175 z"},"x":{"x_min":0,"x_max":438,"ha":438,"o":"m 369 124 q 375 119 375 113 q 375 102 364 94 q 352 87 341 87 q 326 87 317 97 q 307 108 307 122 q 307 136 325 151 q 344 167 357 167 q 386 167 408 144 q 430 122 430 95 q 430 67 401 42 q 371 18 339 18 q 289 18 253 59 q 217 99 176 194 q 91 114 68 12 l 135 3 l 131 -18 q 22 -1 -25 16 l -23 37 q 20 23 38 20 q 52 66 76 106 q 100 146 166 211 q 95 389 77 418 l 21 398 l 14 418 q 119 447 139 465 q 155 381 201 243 q 280 333 292 421 q 283 423 253 417 l 252 440 q 263 439 276 439 q 349 439 374 458 l 380 437 q 372 435 353 432 q 335 428 328 425 q 328 415 305 359 q 283 303 208 221 q 249 103 271 70 q 294 37 337 37 q 362 37 379 62 q 396 86 396 112 q 396 153 370 153 q 339 153 339 124 q 339 108 350 108 q 359 108 369 124 z"},")":{"x_min":0,"x_max":194,"ha":194,"o":"m 36 720 q 164 463 164 313 q 164 155 83 -27 q 48 -105 39 -143 q 12 -123 -18 -121 q -5 -96 30 -39 q 66 18 86 61 q 107 104 119 172 q 131 239 131 315 q 131 396 116 455 q 101 513 78 556 q 55 600 -10 703 z"},"&":{"x_min":0,"x_max":627,"ha":627,"o":"m 685 332 q 560 329 432 301 q 540 258 540 173 q 540 121 476 54 q 412 -13 327 -13 q 211 -13 127 42 q 44 96 44 171 q 44 223 98 282 q 153 342 315 366 q 223 388 168 447 q 113 505 113 560 q 113 610 166 657 q 219 704 281 704 q 338 704 377 671 q 415 639 415 617 q 415 593 384 564 q 353 536 319 536 q 305 536 290 551 q 275 565 275 576 q 275 590 286 601 q 296 612 312 612 q 319 612 327 610 q 310 594 310 570 q 310 562 316 555 q 321 549 329 549 q 342 549 352 565 q 363 581 363 597 q 363 632 338 659 q 312 686 273 686 q 226 686 200 653 q 174 621 174 575 q 174 486 227 432 q 281 377 376 379 l 374 349 q 247 349 180 311 q 113 272 113 197 q 113 115 181 59 q 250 4 339 4 q 394 4 433 51 q 472 97 472 162 q 472 178 469 195 q 466 211 459 227 q 453 243 444 257 q 436 271 422 282 q 408 293 399 293 q 363 293 318 268 q 274 242 274 220 q 274 146 314 146 q 327 146 333 166 q 340 185 340 211 q 369 211 369 176 q 369 163 343 146 q 317 128 307 128 q 268 128 247 148 q 225 167 225 202 q 225 241 297 278 q 370 316 502 341 q 634 366 685 392 z"},"_":{"x_min":0,"x_max":500,"ha":500,"o":"m 500 -300 l 0 -300 l 0 -250 l 500 -250 z"},"v":{"x_min":0,"x_max":441,"ha":441,"o":"m 284 373 q 261 373 261 393 q 261 402 273 413 q 285 424 296 424 q 335 424 335 371 q 335 341 309 317 q 284 293 256 293 q 236 293 217 319 q 197 344 197 367 q 197 416 234 453 q 271 490 320 490 q 354 490 383 450 q 412 409 412 349 q 412 180 208 -30 q 170 79 108 206 q 45 332 10 371 l -38 352 l -45 375 q 13 395 43 411 q 74 428 121 461 l 134 441 l 82 409 l 125 305 l 159 211 q 188 127 223 22 q 296 92 343 181 q 390 271 390 350 q 390 392 364 423 q 337 453 301 453 q 269 453 247 436 q 226 419 226 392 q 226 367 237 351 q 248 335 267 335 q 288 335 306 345 q 323 355 323 371 q 323 381 314 389 q 305 397 295 397 q 284 397 284 373 z"},"O":{"x_min":0,"x_max":689,"ha":689,"o":"m 326 460 q 318 448 306 448 q 298 448 290 461 q 282 474 282 483 q 282 494 296 507 q 310 520 325 520 q 340 520 357 501 q 374 482 374 466 q 374 429 350 403 q 327 378 300 378 q 269 378 246 406 q 223 434 223 468 q 223 516 270 560 q 317 603 387 603 q 491 603 573 517 q 656 430 656 328 q 656 200 566 95 q 477 -9 360 -9 q 225 -9 130 80 q 36 169 36 291 q 36 409 112 506 q 188 604 299 631 l 305 616 q 215 599 161 511 q 106 423 106 304 q 106 180 180 94 q 253 8 368 8 q 461 8 521 99 q 581 189 581 308 q 581 426 523 502 q 465 579 373 579 q 317 579 279 545 q 240 510 240 469 q 240 447 258 433 q 276 418 296 418 q 321 418 338 430 q 356 442 356 459 q 356 473 346 483 q 335 492 323 492 q 295 492 295 483 q 295 475 326 460 z"},"(":{"x_min":0,"x_max":194,"ha":194,"o":"m 215 698 q 202 674 165 614 q 127 553 107 508 q 88 463 77 396 q 66 329 66 262 q 66 181 81 122 q 96 64 119 21 q 143 -22 207 -126 l 161 -143 q 33 110 33 264 q 33 423 114 605 q 148 683 158 720 q 186 700 215 698 z"},"C":{"x_min":0,"x_max":520,"ha":520,"o":"m 507 190 q 502 85 448 28 q 395 -30 303 -30 q 202 -30 113 68 q 25 166 25 284 q 25 357 65 449 q 104 541 171 596 q 237 652 317 652 q 391 652 436 613 q 480 574 480 527 q 480 481 438 445 q 396 408 346 408 q 317 408 287 431 q 258 454 258 488 q 258 520 278 537 q 297 554 327 554 q 349 554 366 540 q 383 526 383 512 q 383 489 373 475 q 363 460 349 460 q 333 460 327 475 q 337 475 350 484 q 363 493 363 502 q 363 533 344 533 q 322 533 303 516 q 284 498 284 474 q 284 458 303 439 q 322 421 346 421 q 379 421 403 454 q 426 486 426 527 q 426 568 396 601 q 367 634 318 634 q 215 634 155 545 q 94 456 94 326 q 94 185 164 90 q 233 -6 333 -6 q 394 -6 425 31 q 457 68 457 127 q 457 148 453 194 z"},"W":{"x_min":0,"x_max":902,"ha":902,"o":"m 762 578 q 794 578 794 550 q 794 532 771 514 q 747 497 719 497 q 700 497 685 514 q 671 531 671 550 q 671 587 705 621 q 739 655 776 655 q 813 655 837 629 q 860 603 860 556 q 860 511 846 460 q 832 408 778 317 q 725 225 683 118 q 641 11 638 -39 l 618 -40 l 574 59 q 532 152 501 245 q 471 338 450 420 q 359 240 309 -8 l 274 -20 q 250 123 185 313 q 120 503 58 604 q 36 599 -24 580 l -30 600 q 74 639 243 667 l 251 643 q 221 641 150 625 q 218 450 293 51 l 342 222 q 353 260 389 361 q 424 462 457 529 l 521 503 q 530 304 629 17 q 662 212 756 352 q 803 422 819 458 q 835 494 835 546 q 835 576 807 600 q 780 624 756 624 q 706 624 706 569 q 706 554 717 538 q 728 523 741 523 q 768 523 768 548 q 768 562 762 578 z"},"A":{"x_min":0,"x_max":624,"ha":624,"o":"m 634 11 q 589 -10 511 -17 q 479 125 471 278 q 451 276 405 276 q 327 276 271 285 q 245 147 195 74 q 146 1 78 1 q 44 1 18 33 q -8 65 -8 101 q -8 130 16 164 q 39 198 66 198 q 80 198 94 183 q 109 167 109 153 q 109 136 99 117 q 88 99 74 99 q 72 99 67 102 q 81 113 81 129 q 81 139 74 149 q 66 159 57 159 q 11 159 11 118 q 11 81 32 63 q 52 45 101 45 q 171 45 198 127 q 225 208 225 296 q 61 333 61 408 q 61 430 74 447 q 88 465 107 465 l 117 465 q 100 444 100 418 q 100 381 133 354 q 167 326 224 313 q 221 351 221 388 q 221 463 240 512 q 259 562 304 600 q 349 638 405 657 q 461 676 520 676 q 555 676 561 675 q 518 475 513 320 q 522 322 540 328 l 542 285 q 521 283 513 282 l 513 247 q 513 92 532 12 q 568 13 628 37 z m 487 652 q 403 655 349 596 q 295 538 280 351 q 277 318 275 304 q 315 300 339 300 q 391 300 469 311 q 467 369 467 402 q 467 535 487 652 z"},"f":{"x_min":0,"x_max":288,"ha":288,"o":"m 113 301 q 108 331 82 424 q 56 518 56 559 q 56 624 104 669 q 152 715 211 715 q 258 715 287 688 q 317 662 317 614 q 317 590 292 568 q 268 545 237 545 q 181 545 181 594 q 181 606 196 618 q 210 629 222 629 q 233 629 244 622 q 254 615 254 605 q 254 602 250 595 q 245 589 239 588 q 237 617 224 617 q 219 617 213 609 q 208 602 208 590 q 208 576 217 566 q 227 556 240 556 q 257 556 270 574 q 282 591 282 614 q 282 652 262 678 q 241 705 209 705 q 174 705 146 667 q 118 629 118 575 q 118 529 131 433 q 143 336 145 305 q 222 309 290 331 l 291 303 q 221 291 148 283 q 160 128 160 6 q 208 12 247 25 l 250 0 q 207 -7 165 -10 q 123 -14 78 -22 l 78 3 l 136 5 q 136 156 115 279 l 34 268 l 34 294 z"},"Q":{"x_min":0,"x_max":717,"ha":717,"o":"m 656 -58 q 661 -63 661 -69 q 661 -81 642 -89 q 624 -96 616 -96 q 574 -96 574 -56 q 574 -39 598 -10 q 621 18 665 18 q 701 18 728 -1 q 754 -21 754 -50 q 754 -98 715 -132 q 676 -166 621 -166 q 536 -166 511 -78 q 499 -30 481 15 q 422 -12 351 -12 q 222 -12 127 84 q 32 180 32 318 q 32 438 117 542 q 202 646 303 677 l 308 661 q 263 653 211 606 q 158 559 132 479 q 105 399 105 316 q 105 182 174 94 q 244 5 358 5 q 417 5 471 39 q 449 88 421 109 q 394 131 353 131 q 320 131 297 107 q 274 83 275 44 l 253 51 q 266 112 296 144 q 325 177 365 177 q 446 177 491 54 q 544 97 573 163 q 603 229 603 301 q 603 416 533 501 q 464 586 370 586 q 303 586 267 558 q 231 530 231 495 q 231 461 250 438 q 269 415 296 415 q 316 415 334 427 q 352 439 352 452 q 352 467 342 480 q 333 492 321 492 q 304 492 304 474 q 304 466 327 454 q 321 440 309 440 q 294 440 286 448 q 277 456 277 468 q 277 482 294 493 q 311 505 327 505 q 344 505 362 492 q 381 479 381 465 q 381 437 355 418 q 330 399 294 399 q 252 399 220 425 q 189 451 189 478 q 189 525 242 563 q 295 602 378 602 q 494 602 585 519 q 677 435 677 314 q 677 236 629 157 q 581 78 502 28 q 520 -47 545 -89 q 571 -131 651 -131 q 683 -131 705 -116 q 726 -102 726 -74 q 726 -53 707 -29 q 687 -5 659 -5 q 637 -5 619 -14 q 601 -22 601 -36 q 601 -64 624 -64 q 639 -64 656 -58 z"},"w":{"x_min":0,"x_max":668,"ha":668,"o":"m 564 459 q 575 459 575 439 q 575 431 561 417 q 547 402 535 402 q 521 402 507 418 q 492 434 492 447 q 492 483 515 510 q 538 536 561 536 q 587 536 607 506 q 626 476 626 426 q 626 369 609 309 q 592 248 530 148 q 468 48 453 18 q 357 246 329 350 q 259 141 215 0 l 187 -5 q 136 144 126 174 q 117 204 86 286 q 55 368 33 396 q 19 391 -5 374 q -29 356 -41 350 q -50 361 -53 370 q -3 394 104 468 q 127 407 159 256 q 190 104 207 49 q 291 279 311 440 l 252 437 l 250 458 q 289 458 351 464 q 412 471 444 480 l 447 451 q 394 446 379 445 q 411 258 431 190 q 452 121 465 94 l 513 161 q 537 196 557 235 q 578 275 590 318 q 603 361 603 402 q 603 447 586 474 q 568 502 544 502 q 518 502 518 478 q 518 466 526 451 q 535 437 544 437 q 567 437 564 459 z"},"-":{"x_min":0,"x_max":319,"ha":319,"o":"m 288 286 q 281 264 281 237 q 247 249 183 249 q 144 249 99 245 q 54 240 31 239 q 31 265 28 278 q 85 278 159 282 q 233 286 288 286 z"},"E":{"x_min":0,"x_max":532,"ha":532,"o":"m 431 130 q 453 124 453 112 q 453 94 443 80 q 434 67 418 67 q 401 67 389 82 q 378 97 378 115 q 378 143 404 169 q 429 195 448 195 q 491 195 515 177 q 540 159 540 125 q 540 97 522 65 q 503 32 480 13 q 456 -7 433 -11 q 409 -16 366 -16 q 347 -16 280 -8 q 213 1 173 1 q 144 1 92 -9 l 92 17 l 148 21 q 132 226 115 342 q 98 458 62 594 l 10 590 l 10 615 q 177 621 309 647 l 419 669 q 402 577 406 508 l 382 508 l 385 618 l 157 603 q 173 378 173 295 q 316 301 399 330 l 399 291 q 297 271 173 268 q 175 218 175 140 q 175 82 174 23 l 364 17 q 452 17 476 37 q 500 57 500 97 q 500 166 430 166 q 420 166 409 154 q 398 141 398 124 q 398 112 408 104 q 418 97 427 97 q 437 97 437 108 q 437 118 427 124 z"},"s":{"x_min":0,"x_max":307,"ha":307,"o":"m 142 67 q 121 87 106 87 q 98 87 86 74 q 74 61 74 53 q 74 29 102 8 q 130 -13 173 -13 q 193 -13 217 12 q 240 38 240 67 q 240 92 221 120 q 203 149 115 219 q 78 249 63 269 q 48 290 40 315 q 32 341 32 367 q 32 414 70 454 q 108 494 163 494 q 206 494 239 473 q 271 453 271 417 q 271 387 249 362 q 227 337 198 337 q 175 337 160 360 q 144 383 144 405 q 144 432 175 432 q 185 432 193 428 q 192 426 188 422 q 171 403 171 387 q 171 375 188 368 q 206 361 218 361 q 228 361 235 371 q 243 382 243 392 q 243 425 219 451 q 195 477 161 477 q 130 477 109 453 q 88 429 88 401 q 88 306 175 240 q 267 169 267 100 q 267 60 250 31 q 234 2 210 -17 q 187 -36 173 -40 q 160 -44 131 -44 q 100 -44 78 -14 q 56 17 56 51 q 56 76 75 96 q 93 116 114 116 q 128 116 139 108 q 150 101 150 89 q 150 79 142 67 z"},">":{"x_min":0,"x_max":617,"ha":617,"o":"m 578 284 l 574 269 q 413 192 82 -13 l 62 33 q 363 172 513 273 q 439 319 274 393 q 108 468 29 507 l 73 553 q 209 455 578 284 z"},"l":{"x_min":0,"x_max":242,"ha":242,"o":"m 182 95 q 175 62 155 62 q 122 62 122 96 q 122 121 143 140 q 163 158 189 158 q 211 158 228 138 q 244 118 244 93 q 244 44 196 9 q 148 -26 102 -26 q 83 -26 63 -7 q 44 13 44 39 q 44 100 62 202 q 79 304 87 407 q 94 509 94 703 l 34 701 l 35 718 q 127 718 216 744 l 216 727 l 175 714 q 145 472 131 387 q 117 303 89 199 q 61 96 61 57 q 61 37 77 14 q 93 -9 110 -9 q 151 -9 180 17 q 209 42 209 85 q 209 101 199 113 q 190 126 175 126 q 136 126 136 95 q 136 84 150 84 q 165 84 176 97 z"},"8":{"x_min":0,"x_max":437,"ha":437,"o":"m 224 330 q 234 325 259 315 q 408 259 408 149 q 408 91 357 41 q 305 -9 240 -9 q 173 -9 120 36 q 66 81 66 131 q 66 194 101 240 q 136 285 192 328 q 131 361 86 406 q 41 451 41 517 q 41 580 104 629 q 167 678 246 678 q 310 678 357 638 q 405 598 405 556 q 405 525 382 492 q 358 459 319 444 q 290 396 224 330 z m 327 464 q 366 493 366 545 q 366 588 327 624 q 288 660 230 660 q 188 660 149 620 q 110 580 110 515 q 110 485 115 459 q 121 433 142 402 q 163 371 205 341 q 266 398 292 440 q 254 440 230 465 q 207 490 207 525 q 207 547 228 570 q 249 592 269 592 q 280 592 300 581 q 320 571 320 556 q 320 530 283 525 q 283 537 276 552 q 269 568 260 568 q 245 568 235 556 q 225 544 225 534 q 225 513 250 489 q 276 465 303 460 q 314 479 318 503 l 338 499 q 333 475 327 464 z m 210 316 q 167 272 149 238 q 132 204 132 156 q 132 83 167 44 q 203 4 257 4 q 288 4 315 39 q 342 75 342 115 q 342 156 333 184 q 325 211 308 232 q 291 253 260 277 q 229 300 210 316 z"},"\\":{"x_min":0,"x_max":362,"ha":362,"o":"m 388 -94 q 364 -105 347 -109 q 223 160 108 358 q -7 556 -59 624 q -54 626 -30 635 q -6 645 -1 651 l 204 237 q 272 95 326 11 q 337 -7 356 -43 q 375 -79 388 -94 z"},"e":{"x_min":0,"x_max":421,"ha":421,"o":"m 292 105 q 315 105 315 83 q 315 69 302 59 q 290 49 279 49 q 265 49 250 62 q 235 76 235 96 q 235 124 253 140 q 271 156 298 156 q 330 156 352 133 q 373 110 373 75 q 373 34 337 9 q 300 -15 257 -15 q 178 -15 110 51 q 42 116 42 210 q 42 298 108 371 q 174 443 248 443 q 304 443 351 406 q 399 369 399 329 q 399 279 358 248 q 317 216 256 216 q 196 216 164 232 q 132 249 132 279 q 132 306 152 323 q 172 340 194 340 q 213 340 229 330 q 245 320 245 306 q 245 292 234 279 q 223 266 213 266 q 193 266 193 280 q 216 286 216 302 q 216 314 207 321 q 198 328 186 328 q 177 328 169 314 q 162 299 162 284 q 162 263 192 247 q 223 232 266 232 q 303 232 324 254 q 344 277 344 315 q 344 354 314 391 q 285 427 241 427 q 187 427 149 366 q 111 305 111 201 q 111 115 155 59 q 198 3 262 3 q 292 3 322 24 q 351 44 351 76 q 351 98 330 113 q 309 128 284 128 q 271 128 261 119 q 251 110 251 98 q 251 77 276 77 q 283 77 288 86 q 292 95 292 105 z"},"b":{"x_min":0,"x_max":440,"ha":440,"o":"m 203 276 q 178 277 178 297 q 178 311 188 322 q 199 333 212 333 q 228 333 239 319 q 251 304 251 284 q 251 258 233 243 q 216 228 194 228 q 168 228 151 247 q 134 266 134 296 q 134 339 171 375 q 209 411 253 411 q 315 411 365 352 q 416 293 416 226 q 416 139 352 69 q 288 -1 211 -1 q 164 -1 124 31 q 83 62 76 109 q 52 67 31 50 l 15 59 q 33 77 47 100 q 61 123 67 144 q 73 165 82 236 q 90 307 98 410 q 105 513 105 615 q 105 651 101 715 l 42 712 l 43 730 q 131 730 221 762 l 224 745 l 183 732 q 165 579 130 399 q 95 220 95 169 q 95 102 130 61 q 164 20 213 20 q 268 20 309 82 q 349 144 349 220 q 349 282 316 334 q 283 387 240 387 q 205 387 177 362 q 150 336 150 300 q 150 285 164 271 q 179 258 194 258 q 208 258 221 267 q 235 276 235 286 q 235 305 208 305 q 198 305 198 294 q 198 290 203 276 z"},"%":{"x_min":0,"x_max":529,"ha":529,"o":"m 528 639 q 493 604 404 486 q 316 367 247 266 q 177 165 104 41 l 62 -29 q 46 -24 23 -10 q 70 35 111 102 l 255 325 q 358 480 474 672 q 479 665 501 653 q 523 642 528 639 z m 189 529 q 210 529 210 493 q 210 480 199 468 q 188 456 174 456 q 159 456 147 469 q 135 482 135 500 q 135 527 156 553 q 176 578 200 578 q 231 578 258 549 q 284 520 284 496 q 284 452 248 405 q 211 358 170 358 q 116 358 77 385 q 39 413 39 455 q 39 504 66 540 q 93 576 141 588 l 146 579 q 114 563 98 536 q 82 508 82 478 q 82 371 166 371 q 196 371 216 410 q 236 448 236 489 q 236 516 225 540 q 214 564 196 564 q 182 564 170 546 q 157 528 157 509 q 157 500 161 486 q 165 472 169 472 q 183 472 186 485 q 189 498 189 529 z m 366 92 q 329 96 329 118 q 329 147 351 167 q 374 188 403 188 q 425 188 449 163 q 473 139 473 99 q 473 52 436 21 q 398 -9 347 -9 q 301 -9 266 26 q 231 61 231 106 q 231 149 270 188 q 308 227 351 227 q 387 227 411 215 l 403 204 q 382 214 368 214 q 335 214 309 183 q 283 152 283 107 q 283 56 301 30 q 319 4 349 4 q 377 4 404 31 q 430 57 430 87 q 430 127 419 149 q 408 171 390 171 q 362 171 362 125 q 362 109 366 92 z"},"m":{"x_min":0,"x_max":712,"ha":712,"o":"m 387 355 q 405 403 439 435 q 473 468 508 468 q 580 468 618 417 q 657 366 657 276 q 657 161 615 78 q 573 -5 520 -5 q 492 -5 475 14 q 458 32 458 56 q 458 79 472 96 q 487 114 507 114 q 544 114 544 77 q 544 69 536 57 q 527 46 516 41 l 508 48 q 522 58 522 70 q 522 82 504 82 q 478 82 478 46 q 478 31 491 22 q 503 13 524 13 q 560 13 579 72 q 599 131 599 244 q 599 324 567 376 q 536 428 479 428 q 444 428 418 388 q 392 347 392 336 l 395 313 q 397 290 397 273 q 397 172 365 106 q 334 41 292 41 q 273 41 257 54 q 240 68 240 89 q 240 112 252 127 q 264 142 286 142 q 301 142 311 134 q 321 125 321 115 q 321 103 314 92 q 307 81 295 81 l 289 88 q 301 92 301 99 q 301 109 280 109 q 274 109 268 103 q 262 96 262 87 q 262 74 271 65 q 281 56 295 56 q 320 56 333 101 q 347 146 347 269 q 347 318 316 363 q 285 407 242 407 q 220 407 199 394 q 177 381 161 356 q 145 332 144 304 l 141 147 q 139 31 139 14 l 204 17 l 204 -7 q 114 -7 58 -23 l 52 -2 l 116 11 q 116 235 63 424 l -2 417 l -3 438 q 78 440 155 464 q 148 445 143 349 q 154 381 191 410 q 229 440 266 440 q 308 440 342 417 q 375 395 387 355 z"},"#":{"x_min":0,"x_max":450,"ha":450,"o":"m 453 519 q 451 508 442 475 q 416 475 291 487 l 293 391 q 379 395 406 399 l 398 360 q 379 367 294 372 q 297 261 296 228 l 252 224 q 265 282 267 372 q 198 371 145 367 q 131 240 128 193 l 91 192 q 107 247 118 365 q 60 360 33 360 l 27 401 q 62 399 121 393 l 130 497 q 55 499 16 499 l 20 541 q 67 530 130 522 q 130 565 128 637 q 146 637 172 635 q 158 557 157 519 q 212 513 265 510 q 260 589 247 646 q 287 662 306 662 q 294 595 292 509 q 388 506 453 519 z m 268 390 l 266 489 q 227 492 156 496 l 147 391 q 200 387 230 387 q 247 387 268 390 z"},",":{"x_min":0,"x_max":160,"ha":160,"o":"m 90 17 q 80 2 64 2 q 53 2 45 13 q 38 24 38 35 q 38 47 54 58 q 70 69 85 69 q 106 69 120 50 q 134 31 134 8 q 134 -16 121 -40 q 109 -63 64 -101 q 64 -87 55 -76 q 109 -54 109 -12 q 109 11 90 17 z"},"n":{"x_min":0,"x_max":517,"ha":517,"o":"m 133 304 q 185 450 287 450 q 360 450 418 389 q 476 328 476 245 q 476 155 422 71 q 369 -12 309 -12 q 283 -12 259 11 q 234 34 234 59 q 234 80 255 96 q 276 112 298 112 q 349 112 349 80 q 349 50 312 50 q 295 50 292 57 l 296 62 q 302 60 307 60 q 317 60 317 78 q 317 98 298 98 q 288 98 279 83 q 271 67 271 52 q 271 5 313 5 q 408 5 408 259 q 408 320 371 374 q 334 428 285 428 q 244 428 210 396 q 176 363 157 320 q 137 276 137 270 l 118 13 l 171 26 l 177 4 q 125 -9 100 -9 q 76 -9 30 -6 l 34 16 l 99 11 q 100 30 100 57 q 100 256 63 435 l 8 426 l 2 444 q 70 452 142 487 z"},"h":{"x_min":0,"x_max":453,"ha":453,"o":"m 367 21 q 341 19 341 45 q 341 58 354 70 q 367 81 381 81 q 391 81 410 73 q 429 64 429 41 q 429 0 405 -29 q 380 -57 348 -57 q 327 -57 306 -31 q 285 -6 285 21 q 285 62 311 126 q 337 191 337 239 q 337 397 219 397 q 179 397 145 356 q 111 315 111 292 q 115 141 119 -10 q 146 -8 192 -9 l 190 -35 q 163 -32 121 -32 q 52 -32 14 -39 l 13 -16 q 62 -16 94 -12 q 97 78 69 323 q 40 567 7 709 q -14 706 -62 703 l -63 723 q 3 724 141 750 l 142 731 q 106 724 84 720 q 91 664 97 551 l 109 333 q 130 380 169 408 q 208 436 250 436 q 315 436 358 389 q 400 342 400 287 q 400 214 339 125 q 321 98 313 80 q 305 62 305 37 q 305 5 329 -9 q 354 -22 372 -22 q 388 -22 397 -11 q 406 0 406 17 q 406 34 397 50 q 388 66 377 66 q 363 66 363 39 q 363 25 367 21 z"},"z":{"x_min":0,"x_max":392,"ha":392,"o":"m 357 449 q 316 356 222 234 q 128 113 52 56 q 110 64 143 64 q 247 64 321 29 q 327 68 329 121 l 353 119 q 333 31 335 -52 l 316 -51 q 315 -34 315 -31 q 315 -18 320 6 q 246 34 181 34 q 102 34 5 5 l -11 33 q 69 78 157 202 q 245 326 271 424 q 167 398 131 398 q 92 398 57 418 q 23 438 23 471 q 23 499 51 516 q 79 533 112 533 q 138 533 158 522 q 179 511 179 492 q 179 476 155 466 q 131 455 110 455 q 83 455 83 478 q 83 488 104 491 q 104 470 127 470 q 134 470 140 473 q 147 476 147 481 q 147 495 129 505 q 112 515 95 515 q 77 515 60 504 q 44 492 44 476 q 44 455 67 444 q 90 432 151 432 q 265 432 346 462 z"},"B":{"x_min":0,"x_max":561,"ha":561,"o":"m 264 651 q 386 640 444 589 q 502 538 502 478 q 502 419 444 366 q 386 312 303 296 q 371 286 415 250 q 459 214 459 173 q 459 152 442 124 q 426 96 397 74 q 368 52 326 39 q 285 26 253 22 q 222 18 145 18 q 110 18 86 19 l 92 47 q 131 39 179 39 q 201 208 201 372 q 201 503 192 632 q 19 621 19 509 q 19 463 72 463 q 82 463 98 473 q 115 483 115 494 q 115 498 109 500 q 103 503 98 503 q 89 503 79 490 q 71 493 71 504 q 71 523 102 523 q 113 523 120 513 q 128 503 128 491 q 128 468 110 453 q 93 439 71 439 q 42 439 11 465 q -20 490 -20 520 q -20 565 33 602 q 86 639 190 649 q 190 704 183 743 q 238 743 265 736 q 265 677 264 651 z m 260 308 q 350 308 390 359 q 430 410 430 455 q 430 525 401 561 q 372 597 345 611 q 318 625 263 632 q 263 564 248 390 q 233 216 207 42 q 264 39 327 68 q 390 98 390 160 q 390 284 260 284 z"},"K":{"x_min":0,"x_max":623,"ha":623,"o":"m 551 149 q 564 149 564 131 q 564 123 554 117 q 544 111 530 111 q 514 111 499 124 q 484 136 484 153 q 484 169 502 182 q 520 195 544 195 q 573 195 597 175 q 621 155 621 129 q 621 98 592 77 q 562 56 531 56 q 451 56 376 111 q 301 167 203 314 l 146 267 l 144 22 q 186 22 243 40 l 243 14 q 188 2 133 2 q 108 2 33 -8 l 33 19 l 120 21 l 83 608 l 11 606 l 11 629 q 90 630 124 634 q 158 637 219 654 l 219 627 l 159 614 q 148 475 146 296 q 260 393 317 476 q 374 560 406 654 l 363 682 l 374 699 q 422 669 454 657 q 487 645 525 635 l 513 616 l 462 629 q 368 475 251 360 l 323 245 q 358 189 389 153 q 420 116 457 93 q 494 70 535 70 q 555 70 570 88 q 585 107 585 132 q 585 154 574 169 q 563 184 545 184 q 515 184 515 156 q 515 145 521 135 q 527 124 534 124 q 549 124 551 149 z"},"R":{"x_min":0,"x_max":611,"ha":611,"o":"m 528 -22 q 551 -23 551 -35 q 551 -48 537 -61 q 522 -74 506 -74 q 487 -74 469 -62 q 452 -51 452 -35 q 452 -13 474 8 q 495 29 519 29 q 558 29 584 9 q 610 -11 610 -40 q 610 -74 574 -104 q 539 -134 489 -134 q 442 -134 413 -106 q 385 -78 385 -33 q 385 -8 393 46 q 402 101 402 157 q 402 307 225 307 l 223 322 q 384 362 384 500 q 384 555 335 590 q 287 625 228 625 q 208 625 180 622 q 168 489 168 225 q 168 200 171 50 q 213 50 270 68 l 270 41 q 215 29 160 29 q 135 29 60 19 l 60 47 l 147 49 q 111 427 102 614 l 30 602 l 30 625 q 179 647 252 647 q 342 647 402 604 q 462 562 462 513 q 462 465 416 412 q 370 359 287 326 q 375 315 419 285 q 463 255 463 190 q 463 154 436 81 q 408 7 408 -37 q 408 -73 431 -96 q 454 -118 494 -118 q 528 -118 551 -97 q 574 -76 574 -49 q 574 14 520 14 q 509 14 499 3 q 489 -7 489 -21 q 489 -37 496 -47 q 503 -57 512 -57 q 529 -57 528 -22 z"},"T":{"x_min":0,"x_max":475,"ha":475,"o":"m 340 702 q 337 707 337 712 q 337 722 345 729 q 353 736 362 736 q 378 736 392 724 q 405 712 405 700 q 405 677 385 659 q 364 641 337 641 q 308 641 286 661 q 265 681 265 708 q 265 735 299 760 q 332 785 379 785 q 426 785 467 757 q 507 729 507 690 q 507 627 455 595 q 403 563 265 548 q 269 433 269 354 q 269 251 260 27 q 338 27 387 47 l 387 16 q 318 6 244 4 q 219 3 173 -7 l 173 20 l 234 24 q 234 122 218 292 q 203 462 183 537 q 121 524 -1 512 l 6 420 l -20 417 q -23 504 -34 550 l -9 554 l -5 534 q 129 546 252 568 q 375 590 418 618 q 461 647 461 700 q 461 731 438 751 q 416 771 377 771 q 350 771 325 752 q 301 732 301 708 q 301 689 313 672 q 326 655 342 655 q 359 655 370 665 q 380 675 380 690 q 380 697 375 705 q 369 712 361 712 q 354 712 340 702 z"},"P":{"x_min":0,"x_max":551,"ha":551,"o":"m 266 667 q 383 667 462 609 q 540 551 540 472 q 540 375 478 304 q 415 234 336 234 q 311 234 290 255 q 270 275 270 301 q 270 316 297 331 q 323 345 344 345 q 366 345 366 316 q 366 308 348 292 q 346 295 338 309 q 330 323 320 323 q 298 323 298 288 q 298 271 311 259 q 325 248 344 248 q 396 248 434 304 q 473 359 473 435 q 473 524 421 582 q 369 639 264 644 q 254 538 254 314 q 254 256 266 155 q 277 54 279 13 l 401 3 l 394 -26 q 340 -17 251 -11 q 162 -5 111 -7 l 108 22 q 151 22 198 19 q 246 15 254 16 q 251 60 238 153 q 207 370 207 532 q 207 623 209 645 q 135 642 80 611 q 25 580 25 534 q 25 513 44 500 q 62 487 87 487 q 147 487 147 509 q 147 515 141 519 q 135 523 128 523 q 112 523 112 505 q 97 507 97 522 q 97 546 125 546 q 138 546 150 536 q 162 525 162 515 q 162 490 139 473 q 116 455 83 455 q 47 455 22 476 q -3 498 -3 528 q -3 567 42 608 q 88 648 210 665 q 210 685 211 764 q 276 759 285 759 q 267 682 266 667 z"},"|":{"x_min":0,"x_max":152,"ha":152,"o":"m 100 -140 l 50 -160 q 60 139 60 325 q 60 470 50 760 l 100 764 q 92 356 92 104 q 92 -7 100 -140 z"},"t":{"x_min":0,"x_max":302,"ha":302,"o":"m 305 470 q 265 463 239 460 q 213 457 163 441 q 161 410 134 287 q 108 165 108 122 q 108 66 131 37 q 153 7 195 7 q 225 7 241 34 q 258 61 258 104 q 258 121 246 138 q 234 156 220 156 q 208 156 200 144 q 192 131 192 115 q 192 101 205 101 q 218 101 224 122 l 230 118 q 230 103 221 93 q 213 83 203 83 q 187 83 173 94 q 158 104 158 120 q 158 141 177 157 q 195 174 216 174 q 243 174 269 155 q 296 137 296 116 q 296 70 268 31 q 239 -9 202 -9 q 146 -9 112 27 q 78 62 78 120 q 78 149 90 275 q 101 401 100 422 l 10 396 l 10 423 l 100 444 q 101 458 101 478 q 101 536 93 591 l 177 605 q 178 544 165 464 q 226 483 248 488 q 269 492 298 500 z"},"M":{"x_min":0,"x_max":834,"ha":834,"o":"m 744 72 q 757 67 757 57 q 757 33 723 33 q 708 33 692 47 q 676 61 676 75 q 676 97 700 116 q 725 135 753 135 q 774 135 791 116 q 808 97 808 68 q 808 36 775 -2 q 743 -39 716 -39 q 665 -39 640 -7 q 616 25 611 70 q 605 114 605 186 l 611 452 q 611 492 609 534 q 480 278 454 166 l 426 164 q 384 256 322 378 q 260 500 242 567 q 236 490 236 387 q 236 218 254 27 q 289 27 346 21 l 343 2 q 138 8 132 10 l 134 34 q 198 25 232 27 q 193 272 197 607 q 117 607 87 603 q 56 598 36 576 q 16 554 16 518 q 16 491 36 474 q 57 457 81 457 q 95 457 107 464 q 119 472 119 481 q 119 486 113 493 q 106 500 102 500 q 79 500 62 481 q 52 488 52 497 q 52 510 64 519 q 77 529 86 529 q 103 529 122 514 q 141 500 141 483 q 141 460 123 441 q 105 422 85 422 q 52 422 27 449 q 1 477 1 524 q 1 561 32 593 q 62 625 104 625 q 140 625 209 629 q 279 633 305 638 l 312 617 q 276 613 258 613 q 305 473 457 260 q 516 407 552 479 q 587 551 610 617 q 603 619 543 628 l 549 648 q 565 643 649 633 q 732 623 790 620 l 785 599 q 749 599 688 608 q 684 591 666 385 q 647 179 647 82 q 647 -24 704 -24 q 732 -24 752 -1 q 772 22 772 57 q 772 121 741 121 q 730 121 718 111 q 706 101 706 89 q 706 73 714 60 q 722 47 731 47 q 744 47 744 72 z"},"g":{"x_min":0,"x_max":443,"ha":443,"o":"m 164 21 q 214 46 234 57 q 253 69 297 85 q 340 102 378 102 q 414 102 437 73 q 459 44 459 0 q 459 -73 388 -132 q 317 -191 206 -191 q 138 -191 89 -156 q 39 -121 39 -72 q 39 -11 124 33 l 130 23 q 92 -5 92 -58 q 92 -106 123 -141 q 155 -177 208 -177 q 304 -177 364 -123 q 424 -69 424 -15 q 424 9 407 25 q 391 41 365 41 q 327 41 292 31 q 257 21 215 0 q 172 -21 143 -41 l 130 -33 q 143 -9 149 49 q 155 107 159 137 q 103 151 69 191 q 35 231 35 283 q 35 361 89 419 q 144 476 208 476 q 249 476 276 456 q 253 490 253 525 q 253 554 275 574 q 297 594 331 594 q 356 594 374 580 q 391 565 391 547 q 391 531 378 519 q 364 506 345 506 q 334 506 328 523 q 340 520 344 520 q 359 520 359 545 q 359 560 352 571 q 344 581 332 581 q 309 581 297 563 q 284 545 284 515 q 284 465 295 446 l 281 437 q 256 460 211 460 q 156 460 122 412 q 87 365 87 300 q 87 229 114 190 q 141 150 180 150 q 228 150 262 198 q 297 246 297 306 q 297 346 272 379 q 247 412 213 412 q 199 412 187 399 q 175 386 175 369 q 175 349 182 334 q 189 320 202 320 q 208 320 215 327 q 223 334 223 345 q 223 357 216 357 q 207 357 199 349 q 199 361 205 369 q 211 377 218 377 q 247 377 247 350 q 247 335 231 322 q 216 309 199 309 q 175 309 159 325 q 143 341 143 366 q 143 382 165 402 q 188 422 212 422 q 264 422 303 386 q 342 350 342 299 q 342 233 288 184 q 234 135 177 135 q 170 53 164 21 z"},"j":{"x_min":0,"x_max":234,"ha":234,"o":"m 122 615 q 95 620 95 638 q 95 646 105 652 q 116 658 122 658 q 136 658 145 648 q 155 638 155 623 q 155 608 143 591 q 131 574 114 574 q 91 574 73 594 q 56 613 56 636 q 56 658 81 683 q 105 708 133 708 q 168 708 195 686 q 222 663 222 637 q 222 607 204 584 q 186 561 156 555 l 154 561 q 169 568 180 585 q 191 603 191 619 q 191 647 173 670 q 155 693 131 693 q 110 693 89 674 q 67 655 67 635 q 67 598 104 598 q 144 598 144 627 q 144 632 140 639 q 135 645 129 645 q 116 645 116 631 q 116 625 122 615 z m 231 441 l 163 439 q 157 357 157 274 q 157 203 170 80 q 183 -44 183 -60 q 183 -129 159 -164 q 135 -199 77 -199 q 27 -199 -10 -175 q -47 -151 -47 -110 q -47 -67 -15 -26 q 17 14 52 14 q 79 14 103 -4 q 127 -22 127 -52 q 127 -74 114 -92 q 100 -111 82 -111 q 38 -111 38 -63 q 38 -37 64 -37 q 72 -37 74 -50 q 67 -46 63 -46 q 55 -46 55 -60 q 55 -66 60 -71 q 65 -75 70 -75 q 92 -75 92 -42 q 92 -28 79 -15 q 66 -1 52 -1 q 37 -1 20 -36 q 4 -71 4 -106 q 4 -142 24 -164 q 43 -185 77 -185 q 113 -185 137 -155 q 160 -125 160 -72 q 160 -34 141 57 q 123 147 115 201 q 108 255 97 434 l 25 435 l 23 457 q 94 456 114 456 q 151 456 231 463 z"},"i":{"x_min":0,"x_max":213,"ha":213,"o":"m 188 577 l 182 576 q 164 606 127 606 q 99 606 76 589 q 53 573 53 551 q 53 524 73 509 q 92 493 111 493 q 148 493 148 526 q 148 563 119 563 q 114 563 107 559 q 101 555 101 549 q 101 537 115 537 q 122 537 131 543 q 125 518 108 518 q 100 518 94 527 q 88 537 88 543 q 88 555 98 564 q 108 573 123 573 q 143 573 159 562 q 176 552 176 532 q 176 512 155 497 q 134 483 110 483 q 81 483 60 503 q 38 523 38 553 q 38 585 61 609 q 83 634 109 634 q 174 634 188 577 z m 223 -11 q 110 -11 83 -15 q 55 -19 34 -23 l 34 4 l 97 6 q 97 218 75 411 l 21 413 l 21 431 q 71 430 91 430 q 125 430 184 448 l 184 426 l 140 415 l 130 258 l 118 10 q 174 10 223 16 z"},"y":{"x_min":0,"x_max":395,"ha":395,"o":"m 298 448 q 301 444 301 439 q 301 431 292 423 q 284 415 277 415 q 262 415 250 431 q 238 446 238 460 q 238 482 257 504 q 277 526 295 526 q 322 526 345 503 q 367 480 367 454 q 367 427 355 388 q 342 349 293 252 q 244 156 221 102 q 199 48 186 -7 q 159 -119 119 -141 q 79 -163 56 -163 q 18 -163 -5 -146 q -29 -128 -29 -104 q -29 -79 -2 -60 q 24 -42 58 -42 q 73 -42 84 -52 q 96 -62 96 -78 q 96 -91 80 -102 q 64 -113 49 -113 q 37 -113 37 -103 q 43 -103 52 -95 q 61 -86 61 -74 q 61 -56 48 -56 q 28 -56 16 -66 q 3 -75 3 -92 q 3 -114 21 -132 q 38 -150 61 -150 q 86 -150 112 -110 q 139 -70 151 -28 q 164 14 192 89 q 104 338 20 442 q -2 436 -49 420 l -54 439 q -4 450 77 489 q 104 455 126 399 q 149 343 169 271 l 210 127 l 286 280 q 318 344 328 380 q 339 416 339 440 q 339 463 324 478 q 309 492 285 492 q 274 492 266 486 q 259 480 259 471 q 259 442 275 442 q 284 442 298 448 z"},"@":{"x_min":0,"x_max":551,"ha":551,"o":"m 340 167 q 364 169 379 157 q 395 145 395 122 q 395 93 359 74 q 323 56 270 56 q 171 56 100 133 q 30 209 30 312 q 30 418 104 500 q 178 582 285 582 q 396 582 453 526 q 511 470 511 373 q 511 332 473 284 q 435 236 364 214 q 360 213 342 204 q 324 196 311 194 q 344 297 344 344 q 344 419 279 419 q 251 419 232 392 q 213 365 213 326 q 213 292 228 271 q 242 249 269 249 q 282 249 293 257 q 305 266 305 279 q 305 287 299 295 q 293 303 289 303 q 273 303 257 280 q 248 289 248 303 q 248 314 256 323 q 265 332 276 332 q 320 332 320 284 q 320 273 300 249 q 280 225 259 225 q 222 225 191 254 q 160 282 160 317 q 160 358 196 395 q 232 432 276 432 q 315 432 332 420 q 349 408 353 370 q 366 419 372 466 q 374 463 397 457 q 421 451 424 450 q 355 291 340 229 q 392 228 433 272 q 475 316 475 372 q 475 466 423 518 q 372 569 276 569 q 198 569 141 492 q 84 416 84 334 q 84 270 94 226 q 104 182 133 142 q 162 103 206 87 q 251 72 270 72 q 305 72 327 89 q 349 106 349 131 q 349 150 340 167 z"},".":{"x_min":0,"x_max":155,"ha":155,"o":"m 71 64 q 89 64 101 47 q 114 31 114 10 q 114 -8 82 -8 q 46 -8 46 26 q 46 42 53 53 q 61 64 71 64 z"},"p":{"x_min":0,"x_max":478,"ha":478,"o":"m 238 348 q 238 358 242 362 q 246 366 259 366 q 269 366 283 350 q 298 334 298 326 q 298 306 273 288 q 249 270 225 270 q 197 270 182 288 q 166 305 166 334 q 166 359 201 391 q 236 423 269 423 q 351 423 402 369 q 452 315 452 231 q 452 164 387 101 q 322 39 230 39 q 177 39 123 94 q 114 -23 114 -93 q 114 -137 117 -169 q 148 -167 187 -152 l 190 -180 q 137 -192 106 -192 q 85 -192 21 -197 l 22 -176 q 82 -172 98 -172 q 79 -31 79 170 q 79 345 95 431 q 72 428 7 409 l 3 430 q 93 449 169 479 q 150 418 138 294 q 126 169 126 128 q 174 61 246 61 q 299 61 341 114 q 384 167 384 235 q 384 308 351 357 q 317 407 273 407 q 244 407 223 385 q 202 363 202 331 q 202 313 213 299 q 224 285 235 285 q 249 285 257 296 q 265 307 265 322 q 265 348 238 348 z"},"X":{"x_min":0,"x_max":607,"ha":607,"o":"m 620 16 q 503 -1 378 -52 l 367 -27 q 411 -11 472 7 q 434 102 333 247 q 319 223 287 156 q 255 90 229 57 q 203 24 161 -2 q 118 -29 85 -29 q 44 -29 22 2 q 1 32 1 87 q 1 115 22 141 q 44 168 67 168 q 115 168 115 109 q 115 96 102 84 q 89 72 76 72 q 64 72 59 79 q 54 86 54 107 q 71 101 76 101 q 98 101 98 116 q 98 139 71 139 q 50 139 33 123 q 17 107 17 81 q 17 46 39 29 q 62 11 117 11 q 169 11 217 82 q 264 153 316 272 q 261 349 196 463 q 131 577 113 631 q 101 629 46 634 l 54 661 q 155 646 284 640 l 278 618 q 226 623 207 623 q 232 510 344 333 q 421 499 482 641 q 459 654 409 669 l 426 693 q 497 662 592 641 l 584 610 q 536 628 513 633 q 389 371 361 304 q 422 196 505 15 l 612 41 z"},"*":{"x_min":0,"x_max":402,"ha":402,"o":"m 375 504 l 299 492 q 256 485 230 478 q 353 376 371 380 q 366 374 356 365 q 347 357 342 349 q 321 375 278 412 q 235 449 220 464 q 214 439 214 406 l 216 322 q 206 322 198 323 q 189 324 176 320 q 188 374 201 468 q 122 437 63 396 q 61 417 51 431 q 42 445 39 450 q 145 464 199 487 l 130 538 q 96 564 88 572 q 91 576 108 594 q 126 613 128 616 q 135 606 163 564 q 190 522 206 503 q 213 561 219 644 q 226 643 230 643 q 236 643 266 645 l 229 499 q 339 545 366 566 q 367 562 368 537 q 370 512 375 504 z"},"Y":{"x_min":0,"x_max":728,"ha":728,"o":"m 753 612 l 749 589 l 677 598 l 621 503 l 540 348 l 453 179 q 419 120 381 66 q 359 35 343 17 q 327 0 308 -15 q 289 -30 267 -40 q 245 -50 224 -50 q 164 -50 133 -23 q 102 4 102 52 q 102 84 132 116 q 163 148 199 148 q 246 148 261 134 q 276 119 276 89 q 276 73 252 54 q 228 36 215 36 q 201 36 191 45 q 182 54 182 69 q 208 62 219 62 q 234 62 246 71 q 258 79 258 87 q 258 113 223 113 q 182 113 154 99 q 125 86 125 67 q 125 41 157 23 q 188 6 238 6 q 293 6 347 63 q 401 121 444 215 q 377 280 307 461 q 274 543 229 590 q 184 637 138 637 q 104 637 75 614 q 46 590 46 554 q 46 521 65 503 q 85 486 117 486 q 146 486 164 499 q 181 513 181 534 q 181 560 144 560 q 123 560 123 539 q 123 529 129 516 q 114 516 105 526 q 96 535 96 545 q 96 564 112 581 q 127 597 152 597 q 172 597 185 576 q 197 555 197 526 q 197 501 176 472 q 155 444 127 444 q 91 444 58 476 q 25 508 25 543 q 25 600 69 642 q 112 684 176 684 q 201 684 237 665 q 273 646 307 595 q 342 544 385 412 q 436 253 458 236 q 625 580 642 603 q 623 607 571 614 l 579 639 q 620 625 753 612 z"},"c":{"x_min":0,"x_max":407,"ha":407,"o":"m 320 24 q 267 10 233 10 q 151 10 95 82 q 39 153 39 249 q 39 337 107 406 q 176 476 263 476 q 303 476 345 451 q 386 426 386 391 q 386 362 359 335 q 331 308 300 308 q 272 308 250 323 q 228 338 228 362 q 228 384 242 397 q 256 409 281 409 q 295 409 306 402 q 318 395 318 384 q 318 377 309 370 q 300 363 292 363 l 286 363 q 291 379 291 384 q 291 396 276 396 q 267 396 260 386 q 254 375 254 365 q 254 326 290 326 q 314 326 330 344 q 345 362 345 387 q 345 417 320 439 q 294 460 262 460 q 196 460 151 391 q 107 322 107 245 q 107 160 142 93 q 176 25 233 25 q 277 25 299 62 z"},"!":{"x_min":0,"x_max":218,"ha":218,"o":"m 184 644 q 163 552 141 409 q 120 266 120 161 q 102 167 91 169 q 96 347 96 446 q 96 524 85 629 q 161 639 184 644 z m 59 19 q 47 21 40 38 q 33 55 33 65 q 33 84 59 101 q 85 117 107 117 q 183 117 183 35 q 183 8 164 -7 q 146 -23 119 -23 q 102 -23 90 -3 q 77 17 77 39 q 77 52 83 61 q 90 69 100 69 q 131 69 131 28 q 126 30 118 37 q 111 43 104 43 q 99 43 95 38 q 91 34 91 28 q 91 11 119 11 q 155 11 155 45 q 155 64 135 81 q 115 98 93 98 q 77 98 65 81 q 53 63 53 42 q 53 29 59 19 z"},"/":{"x_min":0,"x_max":362,"ha":362,"o":"m 401 624 q 354 564 239 367 q 124 170 -5 -109 q -22 -105 -46 -94 q -33 -79 -14 -43 q 5 -7 16 11 q 69 95 139 238 l 343 651 q 348 645 372 635 q 396 626 401 624 z"},"[":{"x_min":0,"x_max":214,"ha":214,"o":"m 211 708 l 205 666 q 140 678 90 680 q 95 608 95 456 q 95 303 76 -21 q 106 -28 149 -28 q 165 -28 177 -27 l 171 -55 q 105 -41 55 -42 q 57 4 57 76 q 57 398 28 708 q 81 705 133 705 q 184 705 211 708 z"},"6":{"x_min":0,"x_max":510,"ha":510,"o":"m 256 278 q 298 278 298 246 q 298 234 271 217 q 245 199 218 199 q 200 199 179 221 q 158 244 158 263 q 158 303 196 335 q 233 367 268 367 q 352 367 417 320 q 482 272 482 201 q 482 144 408 67 q 335 -9 295 -9 q 188 -9 111 77 q 34 163 34 302 q 34 329 54 388 q 75 447 98 482 q 122 517 162 564 q 202 612 254 638 q 305 665 366 665 q 401 665 436 626 q 470 587 470 548 q 470 528 455 512 q 440 496 424 496 q 402 496 386 513 q 406 526 420 549 q 434 572 434 587 q 434 602 404 618 q 375 634 315 634 q 271 634 221 593 q 171 551 141 469 q 111 388 111 293 q 111 175 168 94 q 226 13 289 13 q 344 13 372 67 q 401 121 401 214 q 401 269 354 307 q 306 344 246 344 q 227 344 211 323 q 196 302 196 282 q 196 266 211 244 q 226 223 241 223 q 263 223 263 254 q 263 264 256 278 z"},"r":{"x_min":0,"x_max":370,"ha":370,"o":"m 134 329 q 154 396 190 432 q 227 468 264 468 q 300 468 326 438 q 352 409 352 366 q 352 316 323 285 q 293 254 247 254 q 223 254 207 272 q 190 291 190 317 q 190 330 212 348 q 233 367 247 367 q 267 367 281 358 q 295 349 295 332 q 295 313 262 306 q 268 321 268 330 q 268 349 255 349 q 244 349 236 335 q 228 322 228 308 q 228 295 239 283 q 250 271 262 271 q 295 271 315 295 q 334 318 334 354 q 334 379 311 398 q 288 416 259 416 q 229 416 204 400 q 179 384 157 344 q 136 303 136 293 q 136 285 155 19 q 214 37 263 68 l 269 44 q 214 17 167 1 q 121 -15 48 -24 l 48 1 q 91 1 131 12 q 131 64 108 191 q 84 318 58 405 l -11 380 l -16 396 q 79 420 135 472 q 132 431 132 415 q 132 372 134 329 z"},"2":{"x_min":0,"x_max":428,"ha":428,"o":"m 341 137 q 360 139 360 115 q 360 102 347 91 q 333 80 321 80 q 305 80 289 90 q 273 101 273 116 q 273 145 291 171 q 309 197 339 197 q 367 197 391 167 q 415 136 415 94 q 415 63 379 32 q 342 0 310 0 q 291 0 227 18 q 163 35 114 35 q 70 35 57 28 q 44 21 41 8 q 19 33 19 65 q 19 92 45 144 q 70 196 131 248 q 247 346 281 406 q 316 467 316 522 q 316 571 285 616 q 254 660 209 660 q 162 660 131 626 q 100 591 100 555 q 100 522 120 499 q 139 476 161 476 q 180 476 192 491 q 203 505 203 524 q 203 533 197 546 q 191 558 186 558 q 179 558 170 550 q 162 541 162 531 q 162 524 171 514 q 161 508 154 508 q 146 508 139 514 q 132 521 132 529 q 132 548 144 562 q 157 575 171 575 q 234 575 234 531 q 234 508 207 482 q 179 457 139 457 q 110 457 84 485 q 57 513 57 540 q 57 594 113 636 q 169 678 229 678 q 291 678 337 626 q 384 574 384 524 q 384 485 356 430 q 329 375 293 349 q 120 225 83 168 q 45 112 45 70 q 78 96 130 96 q 173 96 257 49 q 305 23 319 23 q 350 23 371 48 q 393 73 393 109 q 393 131 374 150 q 354 168 330 168 q 292 168 292 133 q 292 123 300 112 q 308 102 317 102 q 341 102 341 137 z"},"{":{"x_min":0,"x_max":246,"ha":246,"o":"m 290 618 q 286 612 274 602 q 263 591 259 586 q 227 638 183 638 q 116 638 116 570 q 116 547 125 502 q 135 458 135 435 q 135 373 116 336 q 98 300 63 300 q 104 290 104 212 q 104 188 89 145 q 74 102 74 78 q 74 53 93 35 q 111 17 137 17 q 164 17 195 37 l 203 23 q 192 5 172 -7 q 153 -20 136 -20 q 97 -20 70 30 q 43 79 43 128 q 43 149 59 190 q 74 230 74 252 q 74 294 19 294 q 15 294 -4 289 q 0 309 10 330 q 31 318 49 318 q 71 318 89 336 q 107 354 107 376 q 107 403 85 453 q 63 503 63 531 q 63 581 97 620 q 131 660 178 660 q 204 660 237 648 q 271 636 290 618 z"},"9":{"x_min":0,"x_max":491,"ha":491,"o":"m 245 297 q 235 291 226 291 q 215 291 208 300 q 201 309 201 322 q 201 350 225 377 q 248 405 279 405 q 295 405 312 379 q 328 354 328 333 q 328 288 293 257 q 258 225 221 225 q 146 225 86 281 q 25 337 25 405 q 25 496 89 571 q 152 647 216 647 q 306 647 379 558 q 453 470 453 334 q 453 264 417 176 q 381 87 323 34 q 264 -20 197 -20 q 143 -20 112 7 q 81 33 81 63 q 81 78 94 91 q 107 104 124 104 q 132 104 140 100 q 131 85 131 68 q 131 43 152 20 q 174 -3 209 -3 q 279 -3 327 103 q 375 208 375 346 q 375 472 328 551 q 280 630 219 630 q 170 630 135 567 q 100 504 100 407 q 100 342 137 293 q 174 244 225 244 q 256 244 281 268 q 306 292 306 317 q 306 332 290 348 q 274 364 258 364 q 223 364 223 339 q 223 328 233 314 q 244 300 245 297 z"}," ":{"x_min":0,"x_max":301,"ha":301,"o":""},"I":{"x_min":0,"x_max":269,"ha":269,"o":"m 257 24 l 255 -3 q 203 2 144 2 q 119 2 44 -8 l 44 20 l 131 22 q 96 273 94 626 l 22 624 l 23 647 q 113 646 146 651 q 180 656 230 670 l 235 645 l 170 632 q 152 403 152 233 q 152 130 157 23 q 199 23 257 24 z"},"H":{"x_min":0,"x_max":671,"ha":671,"o":"m 473 362 q 453 513 453 572 q 453 640 492 683 q 530 727 587 727 q 625 727 655 698 q 684 669 684 630 q 684 609 660 587 q 635 565 611 565 q 591 565 572 579 q 552 594 552 606 q 552 621 566 635 q 581 649 593 649 q 610 649 615 644 q 619 640 619 632 q 619 625 613 614 q 601 632 591 632 q 582 632 582 612 q 582 598 592 587 q 602 577 610 577 q 621 577 632 601 q 642 625 642 649 q 642 669 627 690 q 613 710 589 710 q 557 710 536 662 q 515 613 515 548 q 515 474 529 307 q 543 140 562 29 q 596 29 647 51 l 655 24 q 594 9 555 4 q 516 -1 458 -24 l 456 9 l 535 26 q 484 270 478 338 q 405 313 320 298 q 234 283 179 283 q 179 46 172 -16 q 166 -79 140 -124 q 114 -169 66 -169 q 41 -169 16 -147 q -9 -125 -9 -93 q -9 -75 17 -56 q 43 -36 62 -36 q 87 -36 100 -49 q 114 -62 114 -78 q 114 -90 105 -99 q 96 -108 85 -108 q 67 -108 63 -85 l 68 -81 q 77 -90 80 -90 q 90 -90 90 -73 q 90 -66 83 -58 q 76 -51 69 -51 q 57 -51 47 -63 q 37 -76 37 -92 q 37 -116 46 -133 q 55 -150 70 -150 q 109 -150 130 -105 q 151 -61 151 19 q 151 134 130 299 q 108 463 75 613 q 68 612 58 612 q 38 612 10 615 l 10 637 q 169 634 237 649 l 237 623 q 193 619 165 615 q 177 398 177 314 q 203 312 223 312 q 280 312 335 324 q 389 336 473 362 z"},"4":{"x_min":0,"x_max":511,"ha":511,"o":"m 490 296 l 481 247 l 369 247 q 368 183 368 152 q 368 111 373 38 l 473 41 q 473 40 472 29 q 470 18 470 17 q 308 17 183 -21 l 178 7 q 258 22 344 36 q 344 74 339 138 q 333 203 333 245 q 108 241 22 238 q 25 263 94 351 q 176 455 202 505 q 228 554 228 585 q 228 622 214 638 q 200 655 167 655 q 134 655 102 632 q 69 610 69 584 q 69 568 86 545 q 104 522 115 522 q 124 522 133 532 q 141 542 141 555 q 141 570 105 570 q 105 579 115 587 q 126 596 134 596 q 148 596 159 586 q 169 577 169 562 q 169 539 144 521 q 119 504 92 504 q 62 504 44 529 q 26 553 26 584 q 26 615 74 645 q 122 674 171 674 q 224 674 257 647 q 290 620 290 571 q 290 535 264 489 q 237 443 160 366 q 83 290 80 273 q 135 265 195 265 q 262 265 330 276 q 328 452 342 679 q 388 669 425 664 l 402 547 q 385 463 378 401 q 372 339 369 279 q 438 279 490 296 z"},"~":{"x_min":0,"x_max":617,"ha":617,"o":"m 568 304 q 559 230 510 187 q 461 144 415 144 q 379 144 345 168 q 311 191 290 231 q 269 271 246 287 q 223 304 194 304 q 165 304 132 256 q 98 208 98 159 l 34 166 q 50 225 101 276 q 152 328 199 328 q 294 328 337 239 q 354 204 371 187 q 389 170 426 170 q 461 170 485 210 q 508 250 507 310 z"},"D":{"x_min":0,"x_max":654,"ha":654,"o":"m 230 605 q 250 607 270 607 q 374 607 460 569 q 546 531 586 467 q 626 403 626 334 q 626 218 498 106 q 371 -5 155 -11 l 149 14 l 236 19 q 216 325 161 576 q 104 560 70 526 q 36 493 36 447 q 36 433 45 421 q 55 408 64 408 q 79 408 94 420 q 110 431 110 449 q 110 463 105 473 q 100 484 93 484 q 81 484 81 468 q 81 461 88 456 l 84 450 q 60 450 60 470 q 60 484 72 493 q 83 502 98 502 q 115 502 129 488 q 142 474 142 458 q 142 435 115 414 q 87 394 59 394 q 31 394 11 415 q -9 435 -9 455 q -9 492 38 533 q 84 574 156 592 l 142 652 l 223 664 z m 257 21 q 392 42 470 123 q 548 204 548 334 q 548 448 469 517 q 390 587 274 587 q 252 587 234 585 q 257 259 257 21 z"},"^":{"x_min":0,"x_max":617,"ha":617,"o":"m 550 193 l 494 153 q 378 455 321 564 l 227 374 q 176 270 138 169 l 78 200 q 253 489 300 618 l 323 631 q 429 380 550 193 z"},"0":{"x_min":0,"x_max":537,"ha":537,"o":"m 273 490 q 249 502 249 520 q 249 534 264 545 q 279 557 287 557 q 322 557 341 541 q 359 524 359 498 q 359 481 332 458 q 304 435 280 435 q 255 435 231 460 q 208 484 208 518 q 208 562 242 595 q 277 627 309 627 q 388 627 448 534 q 508 441 508 365 q 508 296 471 204 q 435 111 380 53 q 326 -5 271 -5 q 218 -5 157 43 q 97 92 66 166 q 35 241 35 303 q 35 422 105 531 q 176 641 265 677 l 273 664 q 110 581 110 326 q 110 204 139 134 q 169 65 209 38 q 249 11 280 11 q 316 11 359 59 q 402 106 423 180 q 444 253 444 293 q 444 359 431 419 q 420 473 395 536 q 383 566 360 585 q 332 608 309 608 q 271 608 247 582 q 223 555 223 525 q 223 491 240 471 q 256 450 280 450 q 295 450 307 463 q 320 476 320 490 q 320 514 313 528 q 307 542 297 542 q 280 542 273 490 z"},"F":{"x_min":0,"x_max":457,"ha":457,"o":"m 2 612 q 58 608 106 608 q 152 608 238 625 q 323 643 362 643 q 400 643 422 624 q 444 604 444 567 q 444 528 410 484 q 377 439 340 439 q 306 439 287 457 q 267 475 267 497 q 267 515 290 537 q 313 558 331 558 q 344 558 355 546 q 366 535 366 524 q 366 495 342 495 q 334 534 314 534 q 305 534 298 528 q 291 521 291 512 q 291 498 309 477 q 327 456 345 456 q 374 456 391 484 q 408 512 408 548 q 408 570 390 586 q 371 603 337 603 q 280 603 150 589 q 160 363 160 269 q 294 269 391 293 l 388 255 q 256 239 161 239 l 165 -1 q 233 -1 297 23 l 297 -11 q 209 -23 154 -23 q 129 -23 83 -33 l 83 -4 l 141 -2 q 120 354 61 588 l 2 590 z"},"`":{"x_min":0,"x_max":212,"ha":212,"o":"m 195 521 q 186 508 185 504 q 179 506 138 530 q 97 554 71 564 q 45 573 12 588 q 16 590 23 608 q 30 625 32 629 q 128 553 195 521 z"},"k":{"x_min":0,"x_max":423,"ha":423,"o":"m 413 401 l 411 386 q 372 394 348 410 q 149 266 131 251 q 169 248 196 235 q 222 222 235 203 q 249 184 250 170 q 251 155 251 108 q 251 69 259 52 q 266 36 283 27 q 300 19 319 19 q 349 19 367 42 q 385 65 385 91 q 385 127 346 127 q 333 127 328 125 q 322 122 322 112 q 322 100 341 100 q 344 100 350 103 q 356 105 359 105 q 360 101 360 97 q 360 88 354 82 q 347 76 337 76 q 322 76 315 87 q 307 98 307 114 q 307 128 325 145 q 343 162 361 162 q 381 162 393 143 q 405 123 405 98 q 405 51 372 23 q 339 -4 283 -4 q 251 -4 229 21 q 207 45 206 72 q 206 109 192 161 q 178 212 107 235 l 81 32 l 160 28 l 156 5 q 62 19 -15 16 l -12 39 l 66 36 q 75 139 80 394 q 86 649 86 724 q 61 724 17 729 l 19 747 q 64 743 124 743 q 191 743 231 748 l 231 734 q 183 732 157 728 q 153 630 112 260 l 317 426 q 314 429 294 444 q 273 459 265 470 l 278 485 q 346 419 413 401 z"},"u":{"x_min":0,"x_max":478,"ha":478,"o":"m 478 -3 q 422 -20 387 -37 l 376 78 q 314 -11 228 -11 q 162 -11 107 41 q 52 94 52 169 q 52 200 70 237 q 88 275 111 298 q 134 321 151 351 q 168 381 168 398 q 168 450 123 450 q 104 450 86 439 q 68 428 68 411 q 68 400 77 391 q 86 383 97 383 q 110 383 113 385 q 116 388 116 393 q 116 405 95 409 q 105 421 112 421 q 121 421 128 413 q 135 405 135 394 q 135 378 121 364 q 108 350 92 350 q 77 350 64 365 q 51 380 51 396 q 51 426 73 455 q 96 483 121 483 q 149 483 167 460 q 185 437 185 404 q 185 359 161 317 q 109 225 109 174 q 109 98 145 55 q 182 11 243 11 q 318 11 372 112 q 354 267 321 419 l 269 416 l 271 437 q 358 438 433 464 l 438 444 l 388 430 q 388 265 406 -2 q 441 5 471 20 z"},"]":{"x_min":0,"x_max":214,"ha":214,"o":"m 201 711 q 173 418 173 80 q 173 8 175 -38 q 124 -37 58 -51 l 52 -24 q 113 -26 153 -17 q 135 290 135 488 q 135 629 139 684 q 81 681 25 669 l 19 711 q 43 708 90 708 q 139 708 201 711 z"},"U":{"x_min":0,"x_max":659,"ha":659,"o":"m 463 508 q 463 502 456 497 q 448 492 442 492 q 433 492 425 500 q 418 507 418 515 q 418 526 429 538 q 439 551 451 551 q 470 551 488 537 q 505 523 505 507 q 505 481 483 464 q 460 447 433 447 q 403 447 378 473 q 354 499 354 528 q 354 572 386 602 q 417 633 456 633 q 516 633 557 551 q 598 468 598 333 q 598 185 530 81 q 462 -24 343 -24 q 239 -24 163 56 q 86 136 86 244 q 86 296 91 339 q 96 381 109 470 l 126 583 l 69 583 l 69 602 q 144 604 176 606 q 208 609 266 626 l 266 602 l 209 589 q 200 563 180 484 q 160 404 153 350 q 146 296 146 223 q 146 132 203 64 q 260 -4 343 -4 q 451 -4 511 91 q 572 186 572 330 q 572 459 542 526 q 513 593 457 593 q 428 593 407 570 q 386 547 386 517 q 386 492 403 475 q 420 459 439 459 q 453 459 465 470 q 477 481 477 494 q 477 509 468 525 q 459 540 452 540 q 438 540 438 528 q 438 519 463 508 z"},"o":{"x_min":0,"x_max":478,"ha":478,"o":"m 252 328 q 245 317 235 317 q 229 317 223 323 q 218 329 218 339 q 218 351 229 358 q 239 366 252 366 q 266 366 279 354 q 291 342 291 329 q 291 298 273 280 q 256 261 228 261 q 208 261 194 282 q 179 303 179 333 q 179 368 210 397 q 241 427 273 427 q 339 427 394 368 q 448 310 448 236 q 448 145 385 71 q 323 -2 251 -2 q 169 -2 104 64 q 39 130 39 220 q 39 296 99 364 q 159 433 240 451 l 246 439 q 184 428 143 367 q 102 306 102 234 q 102 136 143 74 q 184 13 250 13 q 301 13 344 75 q 386 137 386 220 q 386 299 349 353 q 312 407 259 407 q 230 407 211 385 q 192 362 192 335 q 192 318 205 305 q 218 293 230 293 q 246 293 261 305 q 277 317 277 328 q 277 352 250 352 q 239 352 239 340 q 239 334 252 328 z"},"N":{"x_min":0,"x_max":774,"ha":774,"o":"m 546 139 q 540 370 540 405 q 540 508 551 556 q 561 604 604 633 q 647 662 710 662 q 749 662 772 647 q 796 632 796 606 q 796 586 766 565 q 735 543 694 543 q 675 543 653 557 q 631 571 631 583 q 631 600 641 609 q 650 619 666 619 q 679 619 686 608 q 672 593 672 585 q 672 557 705 557 q 726 557 737 568 q 748 579 748 594 q 748 618 729 631 q 709 643 678 643 q 622 643 592 582 q 562 521 562 326 q 562 137 584 2 l 566 -1 q 368 386 249 555 q 260 438 260 291 q 260 190 254 134 q 247 77 221 34 q 195 -9 140 -9 q 83 -9 38 24 q -7 57 -7 105 q -7 140 29 171 q 64 202 105 202 q 126 202 143 191 q 159 181 159 164 q 159 143 141 127 q 122 112 94 112 q 86 112 81 117 q 76 123 76 130 q 76 138 84 146 q 87 144 94 135 q 102 127 109 127 q 130 127 130 149 q 130 162 113 172 q 96 183 79 183 q 60 183 46 164 q 32 145 32 125 q 32 84 53 50 q 75 16 108 16 q 173 16 207 88 q 240 159 240 282 q 240 366 229 476 q 217 586 209 619 l 80 614 l 80 636 q 206 636 287 649 q 401 385 546 139 z"},"+":{"x_min":0,"x_max":617,"ha":617,"o":"m 567 254 l 334 256 q 327 55 327 -3 l 292 -5 q 292 75 298 256 q 110 256 52 262 l 54 313 q 236 291 295 291 q 291 470 291 529 l 336 538 l 332 291 q 414 291 561 306 z"},"G":{"x_min":0,"x_max":609,"ha":609,"o":"m 613 232 q 583 226 542 223 q 542 161 551 72 q 560 -18 560 -62 q 560 -116 527 -154 q 494 -193 445 -193 q 411 -193 379 -171 q 346 -149 346 -121 q 346 -94 369 -71 q 392 -47 420 -47 q 441 -47 455 -61 q 469 -75 469 -89 q 469 -101 458 -109 q 447 -117 437 -117 q 420 -117 420 -98 q 427 -103 433 -103 q 443 -103 443 -87 q 443 -63 422 -63 q 411 -63 403 -79 q 394 -96 394 -112 q 394 -140 408 -157 q 423 -175 446 -175 q 486 -175 512 -144 q 538 -113 538 -78 q 538 -45 524 6 q 510 57 507 80 q 451 -14 340 -14 q 224 -14 131 71 q 39 156 39 273 q 39 420 125 532 q 210 645 330 645 q 408 645 455 604 q 502 562 502 516 q 502 471 463 435 q 423 400 375 400 q 346 400 326 420 q 305 441 305 472 q 305 495 323 516 q 342 537 361 537 q 375 537 392 523 q 408 509 408 500 q 408 482 399 470 q 390 459 377 461 q 380 482 369 490 q 358 498 349 498 q 338 498 331 487 q 324 475 324 463 q 324 453 340 436 q 355 418 375 418 q 409 418 430 444 q 450 470 450 515 q 450 561 416 595 q 381 629 329 629 q 228 629 168 538 q 109 448 109 296 q 109 171 181 89 q 254 6 358 6 q 421 6 454 66 q 487 127 487 221 q 452 221 362 210 l 362 239 q 451 244 492 245 q 533 247 563 251 q 593 256 613 261 z"},"q":{"x_min":0,"x_max":497,"ha":497,"o":"m 482 547 q 432 405 404 224 q 376 43 376 -116 l 376 -152 l 478 -165 l 472 -186 q 424 -183 364 -177 q 304 -171 253 -169 l 255 -145 q 300 -152 351 -152 q 346 -71 346 -9 q 346 83 358 210 l 371 332 q 371 341 358 371 q 344 401 311 427 q 277 453 243 453 q 179 453 139 399 q 99 345 99 272 q 99 200 134 143 q 169 85 227 85 q 257 85 283 112 q 309 140 309 170 q 309 199 292 219 q 275 239 249 239 q 234 239 224 232 q 213 226 213 214 q 213 200 255 200 l 260 197 q 260 168 239 168 q 215 168 205 178 q 195 188 195 214 q 195 235 216 255 q 236 275 258 275 q 289 275 305 245 q 322 216 322 173 q 322 134 290 101 q 257 67 219 67 q 144 67 88 121 q 32 175 32 249 q 32 331 100 401 q 168 470 250 470 q 306 470 335 446 q 365 422 380 369 q 397 479 424 561 z"},"d":{"x_min":0,"x_max":440,"ha":440,"o":"m 450 722 l 417 715 q 399 656 374 441 q 348 227 348 103 q 348 25 390 6 l 376 -14 q 345 -5 332 44 q 318 93 318 306 q 274 384 221 384 q 174 384 142 332 q 110 280 110 219 q 110 134 139 81 q 169 28 223 28 q 247 28 268 48 q 289 69 289 94 q 289 117 269 134 q 248 151 224 151 q 217 151 204 142 q 191 132 191 121 q 191 100 216 100 q 223 100 228 109 q 232 118 232 128 q 255 128 255 106 q 255 92 242 82 q 230 72 219 72 q 205 72 190 85 q 175 99 175 119 q 175 148 194 167 q 213 186 238 186 q 269 186 287 161 q 306 135 306 94 q 306 64 280 38 q 253 12 223 12 q 143 12 91 70 q 40 127 40 207 q 40 284 100 344 q 159 405 221 405 q 245 405 272 387 q 299 369 320 336 l 338 707 l 288 707 l 288 725 q 355 725 449 739 z"},"1":{"x_min":0,"x_max":323,"ha":323,"o":"m 303 53 l 300 22 q 132 15 44 -26 l 44 2 q 115 21 177 34 l 164 202 l 142 526 q 138 583 134 605 q 112 590 76 579 q 40 568 18 568 q 6 568 -12 577 q -31 587 -31 596 q -31 620 -18 639 q -4 658 11 658 q 44 658 44 634 q 44 611 20 612 q 20 643 5 643 q 1 643 -2 637 q -5 630 -5 626 q -5 609 4 598 q 14 588 29 588 q 48 588 75 598 q 103 607 153 637 q 204 667 220 675 q 220 546 211 426 q 202 307 202 161 q 202 102 206 35 q 215 36 251 44 q 287 52 303 53 z"},"5":{"x_min":0,"x_max":503,"ha":503,"o":"m 127 425 q 148 430 187 430 q 295 430 355 401 q 415 373 451 324 q 487 275 487 223 q 487 182 449 125 q 412 67 357 29 q 302 -9 252 -9 q 184 -9 123 32 q 63 74 63 138 q 63 179 109 216 q 155 253 191 253 q 210 253 231 240 q 252 226 252 211 q 252 185 230 159 q 208 134 184 134 q 171 134 163 142 q 154 150 154 163 q 154 169 160 181 q 182 173 197 173 q 231 173 231 200 q 231 216 216 225 q 201 234 182 234 q 167 234 146 207 q 124 179 124 161 q 124 83 157 49 q 189 14 262 14 q 313 14 360 79 q 407 144 407 211 q 407 253 388 294 q 370 335 331 365 q 293 394 259 401 q 225 408 167 408 q 122 408 69 378 q 69 531 51 640 l 270 636 q 383 636 383 683 q 383 695 371 702 q 358 709 342 709 q 317 709 317 689 q 317 681 335 669 q 314 659 299 659 q 289 659 282 669 q 276 680 276 683 q 276 696 303 712 q 331 728 358 728 q 381 728 401 715 q 421 702 421 690 q 421 680 392 648 q 363 616 322 600 q 280 584 257 584 q 212 584 154 596 q 96 607 79 610 q 111 497 127 425 z"}}}
